<svg width="560" height="568" viewBox="0 0 560 568" fill="none" xmlns="http://www.w3.org/2000/svg">
<path d="M155 56H445C507.96 56 559 107.04 559 170V170C559 232.96 507.96 284 445 284H377" stroke="#060606" stroke-dasharray="10 10"/>
<path d="M182.5 284H115C52.0395 284 1 335.04 1 398V398C1 460.96 52.0395 512 115 512H404" stroke="#060606" stroke-dasharray="10 10"/>
<rect x="1" width="115" height="112" rx="12" fill="#FFB371"/>
<path d="M59 48C57.3333 48 55.9167 47.4167 54.75 46.25C53.5833 45.0833 53 43.6667 53 42V30C53 28.3333 53.5833 26.9167 54.75 25.75C55.9167 24.5833 57.3333 24 59 24C60.6667 24 62.0833 24.5833 63.25 25.75C64.4167 26.9167 65 28.3333 65 30V42C65 43.6667 64.4167 45.0833 63.25 46.25C62.0833 47.4167 60.6667 48 59 48ZM57 62V55.85C53.5333 55.3833 50.6667 53.8333 48.4 51.2C46.1333 48.5667 45 45.5 45 42H49C49 44.7667 49.975 47.125 51.925 49.075C53.875 51.025 56.2333 52 59 52C61.7667 52 64.125 51.025 66.075 49.075C68.025 47.125 69 44.7667 69 42H73C73 45.5 71.8667 48.5667 69.6 51.2C67.3333 53.8333 64.4667 55.3833 61 55.85V62H57ZM59 44C59.5667 44 60.0417 43.8083 60.425 43.425C60.8083 43.0417 61 42.5667 61 42V30C61 29.4333 60.8083 28.9583 60.425 28.575C60.0417 28.1917 59.5667 28 59 28C58.4333 28 57.9583 28.1917 57.575 28.575C57.1917 28.9583 57 29.4333 57 30V42C57 42.5667 57.1917 43.0417 57.575 43.425C57.9583 43.8083 58.4333 44 59 44Z" fill="white"/>
<path d="M52.7649 85.138H48.8729L48.2289 87H46.1709L49.6849 77.214H51.9669L55.4809 87H53.4089L52.7649 85.138ZM52.2329 83.57L50.8189 79.482L49.4049 83.57H52.2329ZM60.0424 87.126C59.4077 87.126 58.8384 87.014 58.3344 86.79C57.8304 86.5567 57.4291 86.244 57.1304 85.852C56.8411 85.46 56.6824 85.026 56.6544 84.55H58.6284C58.6657 84.8487 58.8104 85.096 59.0624 85.292C59.3237 85.488 59.6457 85.586 60.0284 85.586C60.4017 85.586 60.6911 85.5113 60.8964 85.362C61.1111 85.2127 61.2184 85.0213 61.2184 84.788C61.2184 84.536 61.0877 84.3493 60.8264 84.228C60.5744 84.0973 60.1684 83.9573 59.6084 83.808C59.0297 83.668 58.5537 83.5233 58.1804 83.374C57.8164 83.2247 57.4991 82.996 57.2284 82.688C56.9671 82.38 56.8364 81.9647 56.8364 81.442C56.8364 81.0127 56.9577 80.6207 57.2004 80.266C57.4524 79.9113 57.8071 79.6313 58.2644 79.426C58.7311 79.2207 59.2771 79.118 59.9024 79.118C60.8264 79.118 61.5637 79.3513 62.1144 79.818C62.6651 80.2753 62.9684 80.896 63.0244 81.68H61.1484C61.1204 81.372 60.9897 81.1293 60.7564 80.952C60.5324 80.7653 60.2291 80.672 59.8464 80.672C59.4917 80.672 59.2164 80.7373 59.0204 80.868C58.8337 80.9987 58.7404 81.1807 58.7404 81.414C58.7404 81.6753 58.8711 81.876 59.1324 82.016C59.3937 82.1467 59.7997 82.282 60.3504 82.422C60.9104 82.562 61.3724 82.7067 61.7364 82.856C62.1004 83.0053 62.4131 83.2387 62.6744 83.556C62.9451 83.864 63.0851 84.2747 63.0944 84.788C63.0944 85.236 62.9684 85.6373 62.7164 85.992C62.4737 86.3467 62.1191 86.6267 61.6524 86.832C61.1951 87.028 60.6584 87.126 60.0424 87.126ZM69.5753 87L66.9433 83.696V87H64.9833V76.64H66.9433V82.534L69.5473 79.244H72.0953L68.6793 83.136L72.1233 87H69.5753Z" fill="white"/>
<rect x="222" y="229" width="116" height="111" rx="12" fill="#E87DB3"/>
<path d="M262.5 288V284H268L267.2 283.3C265.467 281.767 264.25 280.017 263.55 278.05C262.85 276.083 262.5 274.1 262.5 272.1C262.5 268.4 263.608 265.108 265.825 262.225C268.042 259.342 270.933 257.433 274.5 256.5V260.7C272.1 261.567 270.167 263.042 268.7 265.125C267.233 267.208 266.5 269.533 266.5 272.1C266.5 273.6 266.783 275.058 267.35 276.475C267.917 277.892 268.8 279.2 270 280.4L270.5 280.9V276H274.5V288H262.5ZM298.35 270H294.3C294.133 268.833 293.775 267.717 293.225 266.65C292.675 265.583 291.933 264.567 291 263.6L290.5 263.1V268H286.5V256H298.5V260H293L293.8 260.7C295.167 262.1 296.217 263.583 296.95 265.15C297.683 266.717 298.15 268.333 298.35 270ZM290.5 294L289.9 291C289.5 290.833 289.125 290.658 288.775 290.475C288.425 290.292 288.067 290.067 287.7 289.8L284.8 290.7L282.8 287.3L285.1 285.3C285.033 284.833 285 284.4 285 284C285 283.6 285.033 283.167 285.1 282.7L282.8 280.7L284.8 277.3L287.7 278.2C288.067 277.933 288.425 277.708 288.775 277.525C289.125 277.342 289.5 277.167 289.9 277L290.5 274H294.5L295.1 277C295.5 277.167 295.875 277.35 296.225 277.55C296.575 277.75 296.933 278 297.3 278.3L300.2 277.3L302.2 280.8L299.9 282.8C299.967 283.2 300 283.617 300 284.05C300 284.483 299.967 284.9 299.9 285.3L302.2 287.3L300.2 290.7L297.3 289.8C296.933 290.067 296.575 290.292 296.225 290.475C295.875 290.658 295.5 290.833 295.1 291L294.5 294H290.5ZM292.5 288C293.6 288 294.542 287.608 295.325 286.825C296.108 286.042 296.5 285.1 296.5 284C296.5 282.9 296.108 281.958 295.325 281.175C294.542 280.392 293.6 280 292.5 280C291.4 280 290.458 280.392 289.675 281.175C288.892 281.958 288.5 282.9 288.5 284C288.5 285.1 288.892 286.042 289.675 286.825C290.458 287.608 291.4 288 292.5 288Z" fill="white"/>
<path d="M250.695 308.252C250.695 308.775 250.569 309.265 250.317 309.722C250.074 310.179 249.687 310.548 249.155 310.828C248.632 311.108 247.969 311.248 247.167 311.248H245.529V315H243.569V305.228H247.167C247.923 305.228 248.567 305.359 249.099 305.62C249.631 305.881 250.027 306.241 250.289 306.698C250.559 307.155 250.695 307.673 250.695 308.252ZM247.083 309.666C247.624 309.666 248.025 309.545 248.287 309.302C248.548 309.05 248.679 308.7 248.679 308.252C248.679 307.3 248.147 306.824 247.083 306.824H245.529V309.666H247.083ZM254.326 308.448C254.578 308.037 254.905 307.715 255.306 307.482C255.717 307.249 256.184 307.132 256.706 307.132V309.19H256.188C255.572 309.19 255.106 309.335 254.788 309.624C254.48 309.913 254.326 310.417 254.326 311.136V315H252.366V307.244H254.326V308.448ZM261.75 315.126C261.004 315.126 260.332 314.963 259.734 314.636C259.137 314.3 258.666 313.829 258.32 313.222C257.984 312.615 257.816 311.915 257.816 311.122C257.816 310.329 257.989 309.629 258.334 309.022C258.689 308.415 259.17 307.949 259.776 307.622C260.383 307.286 261.06 307.118 261.806 307.118C262.553 307.118 263.23 307.286 263.836 307.622C264.443 307.949 264.919 308.415 265.264 309.022C265.619 309.629 265.796 310.329 265.796 311.122C265.796 311.915 265.614 312.615 265.25 313.222C264.896 313.829 264.41 314.3 263.794 314.636C263.188 314.963 262.506 315.126 261.75 315.126ZM261.75 313.418C262.105 313.418 262.436 313.334 262.744 313.166C263.062 312.989 263.314 312.727 263.5 312.382C263.687 312.037 263.78 311.617 263.78 311.122C263.78 310.385 263.584 309.82 263.192 309.428C262.81 309.027 262.338 308.826 261.778 308.826C261.218 308.826 260.747 309.027 260.364 309.428C259.991 309.82 259.804 310.385 259.804 311.122C259.804 311.859 259.986 312.429 260.35 312.83C260.724 313.222 261.19 313.418 261.75 313.418ZM267.01 311.122C267.01 310.319 267.173 309.619 267.5 309.022C267.827 308.415 268.279 307.949 268.858 307.622C269.437 307.286 270.099 307.118 270.846 307.118C271.807 307.118 272.601 307.361 273.226 307.846C273.861 308.322 274.285 308.994 274.5 309.862H272.386C272.274 309.526 272.083 309.265 271.812 309.078C271.551 308.882 271.224 308.784 270.832 308.784C270.272 308.784 269.829 308.989 269.502 309.4C269.175 309.801 269.012 310.375 269.012 311.122C269.012 311.859 269.175 312.433 269.502 312.844C269.829 313.245 270.272 313.446 270.832 313.446C271.625 313.446 272.143 313.091 272.386 312.382H274.5C274.285 313.222 273.861 313.889 273.226 314.384C272.591 314.879 271.798 315.126 270.846 315.126C270.099 315.126 269.437 314.963 268.858 314.636C268.279 314.3 267.827 313.833 267.5 313.236C267.173 312.629 267.01 311.925 267.01 311.122ZM283.426 310.954C283.426 311.234 283.407 311.486 283.37 311.71H277.7C277.747 312.27 277.943 312.709 278.288 313.026C278.633 313.343 279.058 313.502 279.562 313.502C280.29 313.502 280.808 313.189 281.116 312.564H283.23C283.006 313.311 282.577 313.927 281.942 314.412C281.307 314.888 280.528 315.126 279.604 315.126C278.857 315.126 278.185 314.963 277.588 314.636C277 314.3 276.538 313.829 276.202 313.222C275.875 312.615 275.712 311.915 275.712 311.122C275.712 310.319 275.875 309.615 276.202 309.008C276.529 308.401 276.986 307.935 277.574 307.608C278.162 307.281 278.839 307.118 279.604 307.118C280.341 307.118 280.999 307.277 281.578 307.594C282.166 307.911 282.619 308.364 282.936 308.952C283.263 309.531 283.426 310.198 283.426 310.954ZM281.396 310.394C281.387 309.89 281.205 309.489 280.85 309.19C280.495 308.882 280.061 308.728 279.548 308.728C279.063 308.728 278.652 308.877 278.316 309.176C277.989 309.465 277.789 309.871 277.714 310.394H281.396ZM288.105 315.126C287.47 315.126 286.901 315.014 286.397 314.79C285.893 314.557 285.491 314.244 285.193 313.852C284.903 313.46 284.745 313.026 284.717 312.55H286.691C286.728 312.849 286.873 313.096 287.125 313.292C287.386 313.488 287.708 313.586 288.091 313.586C288.464 313.586 288.753 313.511 288.959 313.362C289.173 313.213 289.281 313.021 289.281 312.788C289.281 312.536 289.15 312.349 288.889 312.228C288.637 312.097 288.231 311.957 287.671 311.808C287.092 311.668 286.616 311.523 286.243 311.374C285.879 311.225 285.561 310.996 285.291 310.688C285.029 310.38 284.899 309.965 284.899 309.442C284.899 309.013 285.02 308.621 285.263 308.266C285.515 307.911 285.869 307.631 286.327 307.426C286.793 307.221 287.339 307.118 287.965 307.118C288.889 307.118 289.626 307.351 290.177 307.818C290.727 308.275 291.031 308.896 291.087 309.68H289.211C289.183 309.372 289.052 309.129 288.819 308.952C288.595 308.765 288.291 308.672 287.909 308.672C287.554 308.672 287.279 308.737 287.083 308.868C286.896 308.999 286.803 309.181 286.803 309.414C286.803 309.675 286.933 309.876 287.195 310.016C287.456 310.147 287.862 310.282 288.413 310.422C288.973 310.562 289.435 310.707 289.799 310.856C290.163 311.005 290.475 311.239 290.737 311.556C291.007 311.864 291.147 312.275 291.157 312.788C291.157 313.236 291.031 313.637 290.779 313.992C290.536 314.347 290.181 314.627 289.715 314.832C289.257 315.028 288.721 315.126 288.105 315.126ZM296.014 315.126C295.379 315.126 294.81 315.014 294.306 314.79C293.802 314.557 293.4 314.244 293.102 313.852C292.812 313.46 292.654 313.026 292.626 312.55H294.6C294.637 312.849 294.782 313.096 295.034 313.292C295.295 313.488 295.617 313.586 296 313.586C296.373 313.586 296.662 313.511 296.868 313.362C297.082 313.213 297.19 313.021 297.19 312.788C297.19 312.536 297.059 312.349 296.798 312.228C296.546 312.097 296.14 311.957 295.58 311.808C295.001 311.668 294.525 311.523 294.152 311.374C293.788 311.225 293.47 310.996 293.2 310.688C292.938 310.38 292.808 309.965 292.808 309.442C292.808 309.013 292.929 308.621 293.172 308.266C293.424 307.911 293.778 307.631 294.236 307.426C294.702 307.221 295.248 307.118 295.874 307.118C296.798 307.118 297.535 307.351 298.086 307.818C298.636 308.275 298.94 308.896 298.996 309.68H297.12C297.092 309.372 296.961 309.129 296.728 308.952C296.504 308.765 296.2 308.672 295.818 308.672C295.463 308.672 295.188 308.737 294.992 308.868C294.805 308.999 294.712 309.181 294.712 309.414C294.712 309.675 294.842 309.876 295.104 310.016C295.365 310.147 295.771 310.282 296.322 310.422C296.882 310.562 297.344 310.707 297.708 310.856C298.072 311.005 298.384 311.239 298.646 311.556C298.916 311.864 299.056 312.275 299.066 312.788C299.066 313.236 298.94 313.637 298.688 313.992C298.445 314.347 298.09 314.627 297.624 314.832C297.166 315.028 296.63 315.126 296.014 315.126ZM308.164 310.954C308.164 311.234 308.146 311.486 308.108 311.71H302.438C302.485 312.27 302.681 312.709 303.026 313.026C303.372 313.343 303.796 313.502 304.3 313.502C305.028 313.502 305.546 313.189 305.854 312.564H307.968C307.744 313.311 307.315 313.927 306.68 314.412C306.046 314.888 305.266 315.126 304.342 315.126C303.596 315.126 302.924 314.963 302.326 314.636C301.738 314.3 301.276 313.829 300.94 313.222C300.614 312.615 300.45 311.915 300.45 311.122C300.45 310.319 300.614 309.615 300.94 309.008C301.267 308.401 301.724 307.935 302.312 307.608C302.9 307.281 303.577 307.118 304.342 307.118C305.08 307.118 305.738 307.277 306.316 307.594C306.904 307.911 307.357 308.364 307.674 308.952C308.001 309.531 308.164 310.198 308.164 310.954ZM306.134 310.394C306.125 309.89 305.943 309.489 305.588 309.19C305.234 308.882 304.8 308.728 304.286 308.728C303.801 308.728 303.39 308.877 303.054 309.176C302.728 309.465 302.527 309.871 302.452 310.394H306.134ZM309.371 311.094C309.371 310.31 309.525 309.615 309.833 309.008C310.15 308.401 310.58 307.935 311.121 307.608C311.662 307.281 312.264 307.118 312.927 307.118C313.431 307.118 313.912 307.23 314.369 307.454C314.826 307.669 315.19 307.958 315.461 308.322V304.64H317.449V315H315.461V313.852C315.218 314.235 314.878 314.543 314.439 314.776C314 315.009 313.492 315.126 312.913 315.126C312.26 315.126 311.662 314.958 311.121 314.622C310.58 314.286 310.15 313.815 309.833 313.208C309.525 312.592 309.371 311.887 309.371 311.094ZM315.475 311.122C315.475 310.646 315.382 310.24 315.195 309.904C315.008 309.559 314.756 309.297 314.439 309.12C314.122 308.933 313.781 308.84 313.417 308.84C313.053 308.84 312.717 308.929 312.409 309.106C312.101 309.283 311.849 309.545 311.653 309.89C311.466 310.226 311.373 310.627 311.373 311.094C311.373 311.561 311.466 311.971 311.653 312.326C311.849 312.671 312.101 312.937 312.409 313.124C312.726 313.311 313.062 313.404 313.417 313.404C313.781 313.404 314.122 313.315 314.439 313.138C314.756 312.951 315.008 312.69 315.195 312.354C315.382 312.009 315.475 311.598 315.475 311.122Z" fill="white"/>
<rect x="443" y="456" width="116" height="112" rx="12" fill="#946DF0"/>
<path d="M493 512H509V508H493V512ZM493 504H509V500H493V504ZM489 520C487.9 520 486.958 519.608 486.175 518.825C485.392 518.042 485 517.1 485 516V484C485 482.9 485.392 481.958 486.175 481.175C486.958 480.392 487.9 480 489 480H505L517 492V516C517 517.1 516.608 518.042 515.825 518.825C515.042 519.608 514.1 520 513 520H489ZM503 494V484H489V516H513V494H503Z" fill="white"/>
<path d="M484.397 543L482.241 539.192H481.317V543H479.357V533.228H483.025C483.781 533.228 484.425 533.363 484.957 533.634C485.489 533.895 485.885 534.255 486.147 534.712C486.417 535.16 486.553 535.664 486.553 536.224C486.553 536.868 486.366 537.451 485.993 537.974C485.619 538.487 485.064 538.842 484.327 539.038L486.665 543H484.397ZM481.317 537.722H482.955C483.487 537.722 483.883 537.596 484.145 537.344C484.406 537.083 484.537 536.723 484.537 536.266C484.537 535.818 484.406 535.473 484.145 535.23C483.883 534.978 483.487 534.852 482.955 534.852H481.317V537.722ZM495.816 538.954C495.816 539.234 495.797 539.486 495.76 539.71H490.09C490.136 540.27 490.332 540.709 490.678 541.026C491.023 541.343 491.448 541.502 491.952 541.502C492.68 541.502 493.198 541.189 493.506 540.564H495.62C495.396 541.311 494.966 541.927 494.332 542.412C493.697 542.888 492.918 543.126 491.994 543.126C491.247 543.126 490.575 542.963 489.978 542.636C489.39 542.3 488.928 541.829 488.592 541.222C488.265 540.615 488.102 539.915 488.102 539.122C488.102 538.319 488.265 537.615 488.592 537.008C488.918 536.401 489.376 535.935 489.964 535.608C490.552 535.281 491.228 535.118 491.994 535.118C492.731 535.118 493.389 535.277 493.968 535.594C494.556 535.911 495.008 536.364 495.326 536.952C495.652 537.531 495.816 538.198 495.816 538.954ZM493.786 538.394C493.776 537.89 493.594 537.489 493.24 537.19C492.885 536.882 492.451 536.728 491.938 536.728C491.452 536.728 491.042 536.877 490.706 537.176C490.379 537.465 490.178 537.871 490.104 538.394H493.786ZM500.494 543.126C499.86 543.126 499.29 543.014 498.786 542.79C498.282 542.557 497.881 542.244 497.582 541.852C497.293 541.46 497.134 541.026 497.106 540.55H499.08C499.118 540.849 499.262 541.096 499.514 541.292C499.776 541.488 500.098 541.586 500.48 541.586C500.854 541.586 501.143 541.511 501.348 541.362C501.563 541.213 501.67 541.021 501.67 540.788C501.67 540.536 501.54 540.349 501.278 540.228C501.026 540.097 500.62 539.957 500.06 539.808C499.482 539.668 499.006 539.523 498.632 539.374C498.268 539.225 497.951 538.996 497.68 538.688C497.419 538.38 497.288 537.965 497.288 537.442C497.288 537.013 497.41 536.621 497.652 536.266C497.904 535.911 498.259 535.631 498.716 535.426C499.183 535.221 499.729 535.118 500.354 535.118C501.278 535.118 502.016 535.351 502.566 535.818C503.117 536.275 503.42 536.896 503.476 537.68H501.6C501.572 537.372 501.442 537.129 501.208 536.952C500.984 536.765 500.681 536.672 500.298 536.672C499.944 536.672 499.668 536.737 499.472 536.868C499.286 536.999 499.192 537.181 499.192 537.414C499.192 537.675 499.323 537.876 499.584 538.016C499.846 538.147 500.252 538.282 500.802 538.422C501.362 538.562 501.824 538.707 502.188 538.856C502.552 539.005 502.865 539.239 503.126 539.556C503.397 539.864 503.537 540.275 503.546 540.788C503.546 541.236 503.42 541.637 503.168 541.992C502.926 542.347 502.571 542.627 502.104 542.832C501.647 543.028 501.11 543.126 500.494 543.126ZM512.757 535.244V543H510.783V542.02C510.531 542.356 510.2 542.622 509.789 542.818C509.388 543.005 508.949 543.098 508.473 543.098C507.866 543.098 507.33 542.972 506.863 542.72C506.396 542.459 506.028 542.081 505.757 541.586C505.496 541.082 505.365 540.485 505.365 539.794V535.244H507.325V539.514C507.325 540.13 507.479 540.606 507.787 540.942C508.095 541.269 508.515 541.432 509.047 541.432C509.588 541.432 510.013 541.269 510.321 540.942C510.629 540.606 510.783 540.13 510.783 539.514V535.244H512.757ZM516.931 532.64V543H514.971V532.64H516.931ZM521.429 536.854V540.606C521.429 540.867 521.49 541.059 521.611 541.18C521.742 541.292 521.957 541.348 522.255 541.348H523.165V543H521.933C520.281 543 519.455 542.197 519.455 540.592V536.854H518.531V535.244H519.455V533.326H521.429V535.244H523.165V536.854H521.429Z" fill="white"/>
<circle cx="152" cy="56" r="5" fill="#FFC899"/>
<circle cx="373" cy="284" r="5" fill="#E87DB3"/>
<circle cx="186" cy="284" r="5" fill="#E87DB3"/>
<circle cx="409" cy="511" r="5" fill="#946DF0"/>
</svg>
